<mxfile host="app.diagrams.net" agent="Mozilla/5.0 (Windows NT 10.0; Win64; x64; rv:140.0) Gecko/20100101 Firefox/140.0" version="28.0.4">
  <diagram name="Page-1" id="-ed2s_i2OCm1u421uDTZ">
    <mxGraphModel dx="655" dy="618" grid="1" gridSize="10" guides="1" tooltips="1" connect="1" arrows="1" fold="1" page="1" pageScale="1" pageWidth="827" pageHeight="1169" math="0" shadow="0">
      <root>
        <mxCell id="0" />
        <mxCell id="1" parent="0" />
        <mxCell id="ADXfEhsZGg0La7iw1zWm-1" value="" style="rounded=0;whiteSpace=wrap;html=1;fillColor=#f8cecc;strokeColor=#b85450;" vertex="1" parent="1">
          <mxGeometry x="530" y="80" width="310" height="310" as="geometry" />
        </mxCell>
        <mxCell id="ADXfEhsZGg0La7iw1zWm-2" value="&lt;div&gt;core&lt;/div&gt;" style="text;html=1;align=center;verticalAlign=middle;resizable=0;points=[];autosize=1;strokeColor=none;fillColor=none;" vertex="1" parent="1">
          <mxGeometry x="530" y="80" width="50" height="30" as="geometry" />
        </mxCell>
        <mxCell id="ADXfEhsZGg0La7iw1zWm-19" style="edgeStyle=orthogonalEdgeStyle;rounded=0;orthogonalLoop=1;jettySize=auto;html=1;entryX=1;entryY=0.5;entryDx=0;entryDy=0;exitX=0.5;exitY=0;exitDx=0;exitDy=0;" edge="1" parent="1" source="ADXfEhsZGg0La7iw1zWm-5" target="ADXfEhsZGg0La7iw1zWm-10">
          <mxGeometry relative="1" as="geometry">
            <Array as="points">
              <mxPoint x="767" y="175" />
            </Array>
          </mxGeometry>
        </mxCell>
        <mxCell id="ADXfEhsZGg0La7iw1zWm-5" value="&lt;br&gt;&lt;div&gt;&lt;br&gt;&lt;/div&gt;" style="rounded=0;whiteSpace=wrap;html=1;fillColor=#ffe6cc;strokeColor=#d79b00;" vertex="1" parent="1">
          <mxGeometry x="707" y="190" width="120" height="160" as="geometry" />
        </mxCell>
        <mxCell id="ADXfEhsZGg0La7iw1zWm-4" value="graphs" style="text;html=1;align=center;verticalAlign=middle;resizable=0;points=[];autosize=1;strokeColor=none;fillColor=none;" vertex="1" parent="1">
          <mxGeometry x="707" y="190" width="60" height="30" as="geometry" />
        </mxCell>
        <mxCell id="ADXfEhsZGg0La7iw1zWm-7" value="index_graph" style="rounded=1;whiteSpace=wrap;html=1;" vertex="1" parent="1">
          <mxGeometry x="717" y="230" width="100" height="30" as="geometry" />
        </mxCell>
        <mxCell id="ADXfEhsZGg0La7iw1zWm-8" value="retrieval_graph" style="rounded=1;whiteSpace=wrap;html=1;" vertex="1" parent="1">
          <mxGeometry x="717" y="270" width="100" height="30" as="geometry" />
        </mxCell>
        <mxCell id="ADXfEhsZGg0La7iw1zWm-9" value="report_graph" style="rounded=1;whiteSpace=wrap;html=1;" vertex="1" parent="1">
          <mxGeometry x="717" y="310" width="100" height="30" as="geometry" />
        </mxCell>
        <mxCell id="ADXfEhsZGg0La7iw1zWm-43" style="edgeStyle=orthogonalEdgeStyle;rounded=0;orthogonalLoop=1;jettySize=auto;html=1;entryX=1;entryY=0.5;entryDx=0;entryDy=0;" edge="1" parent="1" source="ADXfEhsZGg0La7iw1zWm-10" target="ADXfEhsZGg0La7iw1zWm-35">
          <mxGeometry relative="1" as="geometry">
            <Array as="points">
              <mxPoint x="520" y="175" />
              <mxPoint x="520" y="195" />
            </Array>
          </mxGeometry>
        </mxCell>
        <mxCell id="ADXfEhsZGg0La7iw1zWm-10" value="&lt;div&gt;agents&lt;/div&gt;" style="rounded=1;whiteSpace=wrap;html=1;" vertex="1" parent="1">
          <mxGeometry x="545" y="160" width="100" height="30" as="geometry" />
        </mxCell>
        <mxCell id="ADXfEhsZGg0La7iw1zWm-42" style="edgeStyle=orthogonalEdgeStyle;rounded=0;orthogonalLoop=1;jettySize=auto;html=1;entryX=1;entryY=0.5;entryDx=0;entryDy=0;" edge="1" parent="1" source="ADXfEhsZGg0La7iw1zWm-11" target="ADXfEhsZGg0La7iw1zWm-35">
          <mxGeometry relative="1" as="geometry">
            <Array as="points">
              <mxPoint x="520" y="135" />
              <mxPoint x="520" y="195" />
            </Array>
          </mxGeometry>
        </mxCell>
        <mxCell id="ADXfEhsZGg0La7iw1zWm-11" value="configuration" style="rounded=1;whiteSpace=wrap;html=1;fillColor=#f5f5f5;fontColor=#333333;strokeColor=#666666;" vertex="1" parent="1">
          <mxGeometry x="545" y="120" width="100" height="30" as="geometry" />
        </mxCell>
        <mxCell id="ADXfEhsZGg0La7iw1zWm-18" style="edgeStyle=orthogonalEdgeStyle;rounded=0;orthogonalLoop=1;jettySize=auto;html=1;entryX=0;entryY=0.5;entryDx=0;entryDy=0;" edge="1" parent="1" source="ADXfEhsZGg0La7iw1zWm-13" target="ADXfEhsZGg0La7iw1zWm-5">
          <mxGeometry relative="1" as="geometry" />
        </mxCell>
        <mxCell id="ADXfEhsZGg0La7iw1zWm-13" value="models" style="rounded=1;whiteSpace=wrap;html=1;" vertex="1" parent="1">
          <mxGeometry x="545" y="270" width="100" height="30" as="geometry" />
        </mxCell>
        <mxCell id="ADXfEhsZGg0La7iw1zWm-17" style="edgeStyle=orthogonalEdgeStyle;rounded=0;orthogonalLoop=1;jettySize=auto;html=1;entryX=0;entryY=0.5;entryDx=0;entryDy=0;" edge="1" parent="1" source="ADXfEhsZGg0La7iw1zWm-14" target="ADXfEhsZGg0La7iw1zWm-5">
          <mxGeometry relative="1" as="geometry" />
        </mxCell>
        <mxCell id="ADXfEhsZGg0La7iw1zWm-14" value="retrieval" style="rounded=1;whiteSpace=wrap;html=1;" vertex="1" parent="1">
          <mxGeometry x="545" y="310" width="100" height="30" as="geometry" />
        </mxCell>
        <mxCell id="ADXfEhsZGg0La7iw1zWm-16" style="edgeStyle=orthogonalEdgeStyle;rounded=0;orthogonalLoop=1;jettySize=auto;html=1;entryX=0;entryY=0.5;entryDx=0;entryDy=0;" edge="1" parent="1" source="ADXfEhsZGg0La7iw1zWm-15" target="ADXfEhsZGg0La7iw1zWm-5">
          <mxGeometry relative="1" as="geometry" />
        </mxCell>
        <mxCell id="ADXfEhsZGg0La7iw1zWm-15" value="state" style="rounded=1;whiteSpace=wrap;html=1;" vertex="1" parent="1">
          <mxGeometry x="545" y="350" width="100" height="30" as="geometry" />
        </mxCell>
        <mxCell id="ADXfEhsZGg0La7iw1zWm-20" value="" style="rounded=0;whiteSpace=wrap;html=1;fillColor=#dae8fc;strokeColor=#6c8ebf;" vertex="1" parent="1">
          <mxGeometry x="710" y="405" width="130" height="180" as="geometry" />
        </mxCell>
        <mxCell id="ADXfEhsZGg0La7iw1zWm-21" value="&lt;div&gt;parser&lt;/div&gt;" style="text;html=1;align=center;verticalAlign=middle;resizable=0;points=[];autosize=1;strokeColor=none;fillColor=none;" vertex="1" parent="1">
          <mxGeometry x="710" y="405" width="60" height="30" as="geometry" />
        </mxCell>
        <mxCell id="ADXfEhsZGg0La7iw1zWm-26" style="edgeStyle=orthogonalEdgeStyle;rounded=0;orthogonalLoop=1;jettySize=auto;html=1;entryX=0.5;entryY=1;entryDx=0;entryDy=0;" edge="1" parent="1" source="ADXfEhsZGg0La7iw1zWm-22" target="ADXfEhsZGg0La7iw1zWm-5">
          <mxGeometry relative="1" as="geometry">
            <Array as="points">
              <mxPoint x="777" y="400" />
              <mxPoint x="767" y="400" />
            </Array>
          </mxGeometry>
        </mxCell>
        <mxCell id="ADXfEhsZGg0La7iw1zWm-22" value="vision_loader" style="rounded=1;whiteSpace=wrap;html=1;" vertex="1" parent="1">
          <mxGeometry x="725" y="435" width="100" height="30" as="geometry" />
        </mxCell>
        <mxCell id="ADXfEhsZGg0La7iw1zWm-25" style="edgeStyle=orthogonalEdgeStyle;rounded=0;orthogonalLoop=1;jettySize=auto;html=1;entryX=0.5;entryY=1;entryDx=0;entryDy=0;" edge="1" parent="1" source="ADXfEhsZGg0La7iw1zWm-23" target="ADXfEhsZGg0La7iw1zWm-22">
          <mxGeometry relative="1" as="geometry" />
        </mxCell>
        <mxCell id="ADXfEhsZGg0La7iw1zWm-23" value="parser" style="rounded=1;whiteSpace=wrap;html=1;" vertex="1" parent="1">
          <mxGeometry x="725" y="495" width="100" height="30" as="geometry" />
        </mxCell>
        <mxCell id="ADXfEhsZGg0La7iw1zWm-24" value="validation" style="rounded=1;whiteSpace=wrap;html=1;dashed=1;" vertex="1" parent="1">
          <mxGeometry x="725" y="535" width="100" height="30" as="geometry" />
        </mxCell>
        <mxCell id="ADXfEhsZGg0La7iw1zWm-27" value="" style="rounded=0;whiteSpace=wrap;html=1;fillColor=#dae8fc;strokeColor=#6c8ebf;" vertex="1" parent="1">
          <mxGeometry x="530" y="405" width="130" height="155" as="geometry" />
        </mxCell>
        <mxCell id="ADXfEhsZGg0La7iw1zWm-28" value="utils" style="text;html=1;align=center;verticalAlign=middle;resizable=0;points=[];autosize=1;strokeColor=none;fillColor=none;" vertex="1" parent="1">
          <mxGeometry x="530" y="405" width="40" height="30" as="geometry" />
        </mxCell>
        <mxCell id="ADXfEhsZGg0La7iw1zWm-29" value="utils" style="rounded=1;whiteSpace=wrap;html=1;" vertex="1" parent="1">
          <mxGeometry x="545" y="440" width="100" height="30" as="geometry" />
        </mxCell>
        <mxCell id="ADXfEhsZGg0La7iw1zWm-48" style="edgeStyle=orthogonalEdgeStyle;rounded=0;orthogonalLoop=1;jettySize=auto;html=1;entryX=1;entryY=0.5;entryDx=0;entryDy=0;" edge="1" parent="1" source="ADXfEhsZGg0La7iw1zWm-30" target="ADXfEhsZGg0La7iw1zWm-44">
          <mxGeometry relative="1" as="geometry" />
        </mxCell>
        <mxCell id="ADXfEhsZGg0La7iw1zWm-50" style="edgeStyle=orthogonalEdgeStyle;rounded=0;orthogonalLoop=1;jettySize=auto;html=1;entryX=0.5;entryY=1;entryDx=0;entryDy=0;" edge="1" parent="1" source="ADXfEhsZGg0La7iw1zWm-30" target="ADXfEhsZGg0La7iw1zWm-1">
          <mxGeometry relative="1" as="geometry">
            <Array as="points">
              <mxPoint x="685" y="585" />
            </Array>
          </mxGeometry>
        </mxCell>
        <mxCell id="ADXfEhsZGg0La7iw1zWm-30" value="constant" style="rounded=1;whiteSpace=wrap;html=1;" vertex="1" parent="1">
          <mxGeometry x="545" y="570" width="100" height="30" as="geometry" />
        </mxCell>
        <mxCell id="ADXfEhsZGg0La7iw1zWm-34" style="edgeStyle=orthogonalEdgeStyle;rounded=0;orthogonalLoop=1;jettySize=auto;html=1;entryX=0;entryY=0.5;entryDx=0;entryDy=0;" edge="1" parent="1" source="ADXfEhsZGg0La7iw1zWm-31" target="ADXfEhsZGg0La7iw1zWm-5">
          <mxGeometry relative="1" as="geometry" />
        </mxCell>
        <mxCell id="ADXfEhsZGg0La7iw1zWm-31" value="prompts" style="rounded=1;whiteSpace=wrap;html=1;" vertex="1" parent="1">
          <mxGeometry x="545" y="230" width="100" height="30" as="geometry" />
        </mxCell>
        <mxCell id="ADXfEhsZGg0La7iw1zWm-32" value="dict_to_pdf" style="rounded=1;whiteSpace=wrap;html=1;" vertex="1" parent="1">
          <mxGeometry x="545" y="520" width="100" height="30" as="geometry" />
        </mxCell>
        <mxCell id="ADXfEhsZGg0La7iw1zWm-33" value="logging" style="rounded=1;whiteSpace=wrap;html=1;" vertex="1" parent="1">
          <mxGeometry x="545" y="480" width="100" height="30" as="geometry" />
        </mxCell>
        <mxCell id="ADXfEhsZGg0La7iw1zWm-35" value="" style="rounded=0;whiteSpace=wrap;html=1;fillColor=#d5e8d4;strokeColor=#82b366;" vertex="1" parent="1">
          <mxGeometry x="400" y="80" width="110" height="230" as="geometry" />
        </mxCell>
        <mxCell id="ADXfEhsZGg0La7iw1zWm-36" value="pages" style="text;html=1;align=center;verticalAlign=middle;resizable=0;points=[];autosize=1;strokeColor=none;fillColor=none;" vertex="1" parent="1">
          <mxGeometry x="395" y="80" width="60" height="30" as="geometry" />
        </mxCell>
        <mxCell id="ADXfEhsZGg0La7iw1zWm-37" value="1_Discussion" style="rounded=1;whiteSpace=wrap;html=1;" vertex="1" parent="1">
          <mxGeometry x="405" y="110" width="100" height="30" as="geometry" />
        </mxCell>
        <mxCell id="ADXfEhsZGg0La7iw1zWm-38" value="2_Report" style="rounded=1;whiteSpace=wrap;html=1;" vertex="1" parent="1">
          <mxGeometry x="405" y="150" width="100" height="30" as="geometry" />
        </mxCell>
        <mxCell id="ADXfEhsZGg0La7iw1zWm-39" value="&lt;div&gt;3_Documents&lt;/div&gt;" style="rounded=1;whiteSpace=wrap;html=1;" vertex="1" parent="1">
          <mxGeometry x="405" y="190" width="100" height="30" as="geometry" />
        </mxCell>
        <mxCell id="ADXfEhsZGg0La7iw1zWm-40" value="4_Configuration" style="rounded=1;whiteSpace=wrap;html=1;" vertex="1" parent="1">
          <mxGeometry x="405" y="230" width="100" height="30" as="geometry" />
        </mxCell>
        <mxCell id="ADXfEhsZGg0La7iw1zWm-41" value="5_Models" style="rounded=1;whiteSpace=wrap;html=1;" vertex="1" parent="1">
          <mxGeometry x="405" y="270" width="100" height="30" as="geometry" />
        </mxCell>
        <mxCell id="ADXfEhsZGg0La7iw1zWm-47" style="edgeStyle=orthogonalEdgeStyle;rounded=0;orthogonalLoop=1;jettySize=auto;html=1;entryX=0.5;entryY=1;entryDx=0;entryDy=0;" edge="1" parent="1" source="ADXfEhsZGg0La7iw1zWm-44" target="ADXfEhsZGg0La7iw1zWm-45">
          <mxGeometry relative="1" as="geometry" />
        </mxCell>
        <mxCell id="ADXfEhsZGg0La7iw1zWm-44" value="main" style="rounded=1;whiteSpace=wrap;html=1;fillColor=#e1d5e7;strokeColor=#9673a6;" vertex="1" parent="1">
          <mxGeometry x="405" y="570" width="100" height="30" as="geometry" />
        </mxCell>
        <mxCell id="ADXfEhsZGg0La7iw1zWm-46" style="edgeStyle=orthogonalEdgeStyle;rounded=0;orthogonalLoop=1;jettySize=auto;html=1;entryX=0.5;entryY=1;entryDx=0;entryDy=0;" edge="1" parent="1" source="ADXfEhsZGg0La7iw1zWm-45" target="ADXfEhsZGg0La7iw1zWm-35">
          <mxGeometry relative="1" as="geometry" />
        </mxCell>
        <mxCell id="ADXfEhsZGg0La7iw1zWm-45" value="Home" style="rounded=1;whiteSpace=wrap;html=1;" vertex="1" parent="1">
          <mxGeometry x="405" y="340" width="100" height="30" as="geometry" />
        </mxCell>
        <mxCell id="ADXfEhsZGg0La7iw1zWm-51" style="edgeStyle=orthogonalEdgeStyle;rounded=0;orthogonalLoop=1;jettySize=auto;html=1;entryX=0.5;entryY=1;entryDx=0;entryDy=0;" edge="1" parent="1" source="ADXfEhsZGg0La7iw1zWm-30" target="ADXfEhsZGg0La7iw1zWm-27">
          <mxGeometry relative="1" as="geometry">
            <Array as="points">
              <mxPoint x="600" y="570" />
              <mxPoint x="600" y="570" />
            </Array>
          </mxGeometry>
        </mxCell>
      </root>
    </mxGraphModel>
  </diagram>
</mxfile>
